<?xml version="1.0" encoding="UTF-8"?>
<svg viewBox="0 0 214 188" height="50" width="50" xmlns="http://www.w3.org/2000/svg">
 <path d="m39.88959,153.25155 .34635-1.13954-1.43966-.01228-9.24382-.1682-9.24383-.16089-4.49759-.60699c-2.47518-.33437-4.66111-.60699-4.85593-.60699h-.35834l-3.14466,4.79011-3.15197,4.79011-.53386.11702c-.29617.06628-1.06772.14848-1.71128.18283l-1.1701.06581-.06582-.48267-.07313-.47535 1.53576-5.06801c.84223-2.78525 1.52845-5.11015 1.52845-5.17041s-.73559-.24092-1.63815-.40222l-1.64546-.29252-.26328-.32178-.26327-.32178 .11701-.11701c.06661-.06661.90098-.34041 1.85023-.60699s1.74336-.50392 1.76978-.52655-.37299-1.40324-.8922-3.07153-1.25531-4.07937-1.63815-5.35322l-.69475-2.31096 .24865-.25596 .24865-.24865 1.06772.04388 1.06772.05119 .61431.29253 .6143.29984 2.96183,4.40252c1.63139,2.42265 3.07961,4.5203 3.21779,4.65848l.24865.24865 1.71128-.27059c.94012-.15087 3.0803-.43615 4.75355-.62893l3.04227-.35104 4.4464-.10969 8.54176-.22671c2.25245-.06011 4.53209-.17322 5.06802-.25596l.97265-.15358-.12432-1.78441c-.07166-.98205-.22196-2.02135-.32909-2.31095l-.19746-.52655h-.70937-.71669l-.14626-.37297-.13895-.37297 .32178-.21208c.17965-.11375.56604-.21011.85564-.21208h.52655v-.17552c-7e-005-.09653-.22186-.74988-.48998-1.45532s-.55244-1.38995-.63624-1.52113-.15892-.34841-.16089-.47536v-.22671l-.40954-.08044-.40954-.08045 .13895.37298 .14626.36565h-.49729-.48998v-.35834-.35835l.58505-.21939c.32178-.12234.58505-.29188.58505-.38028s-.17834-.7244-.39491-1.41144l-.39491-1.25055h-.51923c-.28775,0-.68861-.06083-.8922-.13895l-.37297-.14626v-.3291-.3364l.58505-.2194c.32178-.12234.58505-.27753.58505-.34371s-.28066-.83381-.62162-1.70397-.71497-1.68495-.8337-1.81366l-.21939-.23402 .08044.34372 .07313.34371-.52655.08045-.52655.08044v-.38759-.3876l.46804-.12432 .46804-.11701v-.31447c0-.172-.11703-.57854-.26327-.89952l-.27059-.58505-.60699-.06582-.61431-.07313-.07313-.3876-.07313-.39491 .47536-.14626 .47536-.15358-.4973-1.33099c-.27121-.73285-1.12067-2.80533-1.88679-4.60729s-1.75948-4.09921-2.20857-5.10458l-.81176-1.82829 .12433-.3364 .13164-.33641h.6143 .61431l1.46263.81908c.80527.45033 1.62219,1.0032 1.82098,1.22861s.78238,1.09404 1.29443,1.93067 2.33046,3.73263 4.03686,6.43557 4.46619,7.12594 6.13574,9.82888 3.18782,5.16249 3.37868,5.46293l.35103.54117 .41685-.37297 .41685-.38028 2.54498-.0512 2.55229-.05119 .29253.19014 .29253.19015v1.60889 1.60889l-.29253.19014-.29253.19015-1.90873.11701-1.91605.11701 1.56502,2.49378 1.5577,2.5011 .81907.35835 .81907.36565 8.89279.09507 8.89279.10239 2.31096.48267 2.31827.48998 1.54307.724c.85048.39779 1.78733.94953 2.07694,1.2213l.52655.48998v.38759 .38029l-.47535.51192c-.2631.2824-1.02341.78517-1.68203,1.11891l-1.19204.60699-2.15007.54849-2.15007.54117-2.6693.25596-2.6693.24865-6.90362.00731-6.90361.01463-.65087.2779-.64356.28521-1.50651,2.45722-1.50651,2.45722 1.79904.11701 1.80635.11701 .29253.19015 .29253.19014v1.6162 1.61621l-.51192.27059-.51192.2779-2.42065-.12433-2.41334-.12432-.29253-.24133-.28521-.23403-1.26518,2.02575c-.69531,1.11515-2.12157,3.39476-3.17391,5.06801s-2.3327,3.70416-2.8375,4.51222-1.23007,1.97459-1.61621,2.59617l-3.60538,5.75545-2.90332,4.62191-.724.4461-.724.43879-.2779-.10238-.28521-.1097 .1097.28522 .10238.2779-.77519.52654-.77519.52655h-.63625-.63624l-.1097-.29253-.11701-.29252 1.53576-3.62733c.84414-1.99503 2.07243-4.97252 2.72781-6.6184l1.19205-2.99108-.42416-.31447-.41685-.30715 .14626-.38028 .14626-.3876h.46804 .46804l.32909-.64356c.18007-.35396.40065-.8805.48998-1.1701l-.07313-.05851h-.24865-.24865v-.45341-.45342l.48998-.07313 .49729-.07313 .5558-1.48457 .5558-1.48457-.46073-.12432-.46804-.11701v-.46805-.46804l.40954.1682c.22524.09274.58291.22333.79713.28522l.11701-.46073c.09986-.16089.40857-.94344.68744-1.74053l.50461-1.44801-.67281-.24133-.67281-.23402v-.34372-.3364l.89952-.15358 .8922-.15358 .40954-1.21398c.22301-.66798.45141-1.33346.51192-1.47726l.1097-.26327-.70938-.13895-.70938-.13895v-.45342-.45341l.92146-.16089 1.69299-3.50666z"/>
</svg>
